<svg xmlns="http://www.w3.org/2000/svg" xmlns:xlink="http://www.w3.org/1999/xlink" viewBox="0,0,256,256" width="50px" height="50px" fill-rule="nonzero"><g fill="none" fill-rule="nonzero" stroke="none" stroke-width="1" stroke-linecap="butt" stroke-linejoin="miter" stroke-miterlimit="10" stroke-dasharray="" stroke-dashoffset="0" font-family="none" font-weight="none" font-size="none" text-anchor="none" style="mix-blend-mode: normal"><g transform="scale(8,8)"><path d="M6,14h2c2.20914,0 4,1.79086 4,4v4h-8c-1.10457,0 -2,-0.89543 -2,-2v-2c0,-2.20914 1.79086,-4 4,-4z" fill="#3d88ee"></path><path d="M24,14h2c2.20914,0 4,1.79086 4,4v2c0,1.10457 -0.89543,2 -2,2h-8v-4c0,-2.20914 1.79086,-4 4,-4z" fill="#3d88ee"></path><circle cx="7" cy="11.5" r="2.5" fill="#ffab03"></circle><circle cx="25" cy="11.5" r="2.5" fill="#ffab03"></circle><path d="M15,14h2c3.31371,0 6,2.68629 6,6v4c0,1.10457 -0.89543,2 -2,2h-10c-1.10457,0 -2,-0.89543 -2,-2v-4c0,-3.31371 2.68629,-6 6,-6z" fill="#ffab03"></path><circle cx="16" cy="10" r="4" fill="#3d88ee"></circle><path d="M27.94,13.39c0.81054,-1.25485 0.73529,-2.88584 -0.18736,-4.06072c-0.92265,-1.17489 -2.4893,-1.63466 -3.90054,-1.14472c-1.41124,0.48994 -2.35596,1.82158 -2.3521,3.31545c-0.0001,0.67548 0.1981,1.33612 0.57,1.9c-0.44405,0.18931 -0.85835,0.44194 -1.23,0.75c-0.40063,-0.26118 -0.82602,-0.48225 -1.27,-0.66c1.92448,-1.96256 1.90392,-5.11054 -0.04603,-7.04779c-1.94995,-1.93725 -5.09799,-1.93725 -7.04794,0c-1.94995,1.93725 -1.97051,5.08523 -0.04603,7.04779c-0.44398,0.17775 -0.86937,0.39882 -1.27,0.66c-0.37165,-0.30806 -0.78595,-0.56069 -1.23,-0.75c0.3719,-0.56388 0.5701,-1.22452 0.57,-1.9c0.00386,-1.49386 -0.94086,-2.82551 -2.3521,-3.31545c-1.41124,-0.48994 -2.97789,-0.03016 -3.90054,1.14472c-0.92265,1.17489 -0.9979,2.80587 -0.18736,4.06072c-1.85479,0.78083 -3.06069,2.59755 -3.06,4.61v2c0,1.65685 1.34315,3 3,3h4v1c0,1.65685 1.34315,3 3,3h10c1.65685,0 3,-1.34315 3,-3v-1h4c1.65685,0 3,-1.34315 3,-3v-2c0.00069,-2.01245 -1.20521,-3.82917 -3.06,-4.61zM25,10c0.82843,0 1.5,0.67157 1.5,1.5c0,0.82843 -0.67157,1.5 -1.5,1.5c-0.82843,0 -1.5,-0.67157 -1.5,-1.5c0,-0.82843 0.67157,-1.5 1.5,-1.5zM16,7c1.65685,0 3,1.34315 3,3c0,1.65685 -1.34315,3 -3,3c-1.65685,0 -3,-1.34315 -3,-3c0,-1.65685 1.34315,-3 3,-3zM7,10c0.82843,0 1.5,0.67157 1.5,1.5c0,0.82843 -0.67157,1.5 -1.5,1.5c-0.82843,0 -1.5,-0.67157 -1.5,-1.5c0,-0.82843 0.67157,-1.5 1.5,-1.5zM4,21c-0.55228,0 -1,-0.44772 -1,-1v-2c0,-1.65685 1.34315,-3 3,-3h2c0.58356,0.00358 1.15217,0.18498 1.63,0.52c-1.05529,1.25401 -1.63271,2.84104 -1.63,4.48v1zM22,24c0,0.55228 -0.44772,1 -1,1h-10c-0.55228,0 -1,-0.44772 -1,-1v-4c0,-2.76142 2.23858,-5 5,-5h2c2.76142,0 5,2.23858 5,5zM29,20c0,0.55228 -0.44772,1 -1,1h-4v-1c0.00271,-1.63896 -0.57471,-3.22599 -1.63,-4.48c0.47783,-0.33502 1.04644,-0.51642 1.63,-0.52h2c1.65685,0 3,1.34315 3,3z" fill="#6d6daa"></path></g></g></svg>