<svg xmlns="http://www.w3.org/2000/svg" xmlns:xlink="http://www.w3.org/1999/xlink" viewBox="0,0,256,256" width="50px" height="50px" fill-rule="nonzero"><g fill="#ebd229" fill-rule="nonzero" stroke="none" stroke-width="1" stroke-linecap="butt" stroke-linejoin="miter" stroke-miterlimit="10" stroke-dasharray="" stroke-dashoffset="0" font-family="none" font-weight="none" font-size="none" text-anchor="none" style="mix-blend-mode: normal"><g transform="scale(5.12,5.12)"><path d="M8.67383,0l-1.12305,2.33203l-2.55078,0.30664l1.93945,1.72266l-0.50977,2.63867l2.24414,-1.31836l2.24414,1.31836l-0.50977,-2.63867l1.93945,-1.72266l-2.55078,-0.30664zM10.91797,7h-1.61719c-2.97,0 -5.30078,2.33078 -5.30078,5.30078v32.69922c0,0.55 0.45,1 1,1h17v-10h6v10h17c0.55,0 1,-0.45 1,-1v-32.69922c0,-2.97 -2.33078,-5.30078 -5.30078,-5.30078h-1.61719h-3.67383h-4.49023h-3.67383h-4.48828h-3.67383h-4.49023zM14.5918,7l2.24609,-1.31836l2.24414,1.31836l-0.51172,-2.63867l1.93945,-1.72266l-2.55078,-0.30664l-1.12109,-2.33203l-1.12305,2.33203l-2.55274,0.30664l1.93945,1.72266zM22.75586,7l2.24414,-1.31836l2.24414,1.31836l-0.50977,-2.63867l1.93945,-1.72266l-2.55273,-0.30664l-1.12109,-2.33203l-1.12109,2.33203l-2.55273,0.30664l1.93945,1.72266zM30.91797,7l2.24414,-1.31836l2.24609,1.31836l-0.50977,-2.63867l1.93945,-1.72266l-2.55273,-0.30664l-1.12305,-2.33203l-1.12109,2.33203l-2.55078,0.30664l1.93945,1.72266zM39.08203,7l2.24414,-1.31836l2.24414,1.31836l-0.50977,-2.63867l1.93945,-1.72266l-2.55078,-0.30664l-1.12305,-2.33203l-1.12305,2.33203l-2.55078,0.30664l1.93945,1.72266zM10,12h6v4h-6zM22,12h6v4h-6zM34,12h6v4h-6zM10,20h6v4h-6zM22,20h6v4h-6zM34,20h6v4h-6zM10,28h6v4h-6zM22,28h6v4h-6zM34,28h6v4h-6zM10,36h6v4h-6zM34,36h6v4h-6z"></path></g></g></svg>