<svg xmlns="http://www.w3.org/2000/svg"  viewBox="0 0 64 64" width="50px" height="50px"><path fill="#ffe6e6" d="M32.451,62.987a8.07,8.07,0,0,1-4.5-1.35l-8.443-5.63A5.986,5.986,0,0,0,16.184,55H9V32H19.7a5.016,5.016,0,0,1,2.429.629l14.449,8.027a4.732,4.732,0,0,1,2.412,3.879l.087,1.784,17.3-11.8a4.235,4.235,0,0,1,5.1,6.752L37.658,61.118A8.143,8.143,0,0,1,32.451,62.987Z"/><rect width="8" height="29" x="1" y="29" fill="#997ab8"/><polygon fill="#ffe26f" points="31.64 18.87 24.279 11.695 34.451 10.217 39 1 43.549 10.217 53.721 11.695 46.36 18.87 48.098 29 39 24.217 29.902 29 31.64 18.87"/><path fill="#232328" d="M61.211,33.387a5.161,5.161,0,0,0-5.4.3L39.993,44.486a5.7,5.7,0,0,0-2.926-4.7L22.618,31.754A6.025,6.025,0,0,0,19.7,31H10V29a1,1,0,0,0-1-1H1a1,1,0,0,0-1,1V58a1,1,0,0,0,1,1H9a1,1,0,0,0,1-1V56h6.184a4.986,4.986,0,0,1,2.773.839l8.443,5.63a9.177,9.177,0,0,0,10.9-.583L62.117,42.038A5.226,5.226,0,0,0,64,38.016,5.158,5.158,0,0,0,61.211,33.387ZM8,57H2V30H8ZM60.836,40.5,37.018,60.35a7.163,7.163,0,0,1-8.508.455l-8.444-5.63A6.975,6.975,0,0,0,16.184,54H10V33h9.7a4.015,4.015,0,0,1,1.943.5L36.1,41.53a3.7,3.7,0,0,1-3.3,6.618L20.021,42.47a1,1,0,1,0-.813,1.828l12.775,5.677A5.708,5.708,0,0,0,39.4,47.309L56.941,35.344A3.236,3.236,0,0,1,62,38.016,3.224,3.224,0,0,1,60.836,40.5Z"/><path fill="#232328" d="M30.565,19.219l-1.648,9.612a1,1,0,0,0,1.451,1.054L39,25.347l8.632,4.538a1,1,0,0,0,1.451-1.054l-1.648-9.612,6.984-6.808a1,1,0,0,0-.555-1.706L44.213,9.3,39.9.558a1.04,1.04,0,0,0-1.792,0L33.787,9.3l-9.651,1.4a1,1,0,0,0-.555,1.706Zm4.03-8.012a1,1,0,0,0,.753-.548L39,3.259l3.652,7.4a1,1,0,0,0,.753.548l8.167,1.186-5.91,5.76a1,1,0,0,0-.287.886l1.4,8.133-7.3-3.84a1,1,0,0,0-.932,0l-7.3,3.84,1.395-8.133a1,1,0,0,0-.287-.886l-5.91-5.76Z"/></svg>