<svg xmlns="http://www.w3.org/2000/svg"  viewBox="0 0 48 48" width="50px" height="50px"><polygon fill="#ffb74d" points="7,28 7,31 10,33 10,28"/><polygon fill="#ffb74d" points="20,28 20,33 23,31 23,28"/><path fill="#37474f" d="M12,16.582C9.068,17.768,7,20.643,7,24v4l3,2v3l1.064,12H15h3.936L20,33v-3l3-2v-4 c0-3.357-2.068-6.232-5-7.418H12z"/><path fill="#e3f2fd" d="M12.019,16.58L15,26.998l2.981-10.418C17.059,16.209,16.055,16,15,16S12.941,16.209,12.019,16.58z"/><rect width="4" height="3.5" x="13" y="13" fill="#ff9800"/><path fill="#ffb74d" d="M14.999,15.004c-2.758,0-4.999-2.243-4.999-5s2.242-5,4.999-5s4.999,2.243,4.999,5 S17.757,15.004,14.999,15.004"/><path fill="#424242" d="M14.782,3.004c-2.438,0.219-4.781,1.93-4.781,5.574v1.426l1,1v-3l6.309-2.201L19,8.004v3l1-1V8.802 c0-2.414-0.135-4.206-3-4.798l-0.485-1L14.782,3.004z"/><path fill="#37474f" d="M16.952,18L15,16.5l1.952-1.503c0,0,0.548,0.503,0.548,1.503S16.952,18,16.952,18z"/><path fill="#37474f" d="M12.5,16.5c0-1,0.548-1.503,0.548-1.503L15,16.5L13.048,18C13.048,18,12.5,17.5,12.5,16.5z"/><g><polygon fill="#ffb74d" points="25.017,24 25.017,31 28.082,33 29,24"/><polygon fill="#ffb74d" points="37.017,24 37.935,33 41,31 41,24"/><path fill="#546e7a" d="M37.241,17.236L34.983,21L33,19.017L31.017,21l-2.258-3.764c-2.246,1.417-3.742,3.913-3.742,6.764 l2.417,1l0.288,4L29,30l-0.836,4.144L29.017,45h7.966l0.854-10.875l-0.849-4.117L38.278,29l0.288-4L41,24 C41,21.149,39.487,18.653,37.241,17.236z"/><path fill="#e3f2fd" d="M33.017,19l2,2l2.258-3.764C36.042,16.457,34.585,16,33.017,16s-3.024,0.457-4.258,1.236L31.017,21 L33.017,19z"/><path fill="#e3f2fd" d="M37.836,34.144L38.278,29H27.722l0.442,5.144C28.239,35.19,29.11,36,30.159,36h5.683 C36.89,36,37.761,35.19,37.836,34.144z"/><path fill="#bf360c" d="M37,16c0,0-1-1-4-1s-4,1-4,1V7h8V16z"/><path fill="#ff9800" d="M35,16c0,1.105-0.895,2-2,2s-2-0.895-2-2s0-3,0-3h4C35,13,35,15.405,35,16z"/><path fill="#ffb74d" d="M33,5c-2.485,0-4.5,2.015-4.5,4.5v1c0,2.485,2.015,4.5,4.5,4.5s4.5-2.015,4.5-4.5v-1 C37.5,7.015,35.485,5,33,5z"/><path fill="#ff5722" d="M33.017,3C29.979,3,26,4,26,13l3,3V9.5L35.017,6L37,8.5V16l3-3c0-2,0.017-9-4.983-9l-0.5-1H33.017z"/></g></svg>