<?xml version="1.0" ?>
<!-- Uploaded to: SVG Repo, www.svgrepo.com, Generator: SVG Repo Mixer Tools -->
<svg width="800px" height="800px" viewBox="0 0 64 64" id="svg5" version="1.1" xml:space="preserve" xmlns="http://www.w3.org/2000/svg" xmlns:svg="http://www.w3.org/2000/svg">
<defs id="defs2"/>
<g id="layer1" transform="translate(-192,-192)">
<path d="m 201,196 a 1.0001,1.0001 0 0 0 -1,1 v 2 c 0,1.64501 1.35499,3 3,3 h 1 v 1 c 0,0.87887 0.38888,1.67176 1,2.22266 v 39.86914 c -2.82833,0.48028 -5,2.94782 -5,5.9082 a 1.0001,1.0001 0 0 0 1,1 h 46 a 1.0001,1.0001 0 0 0 1,-1 c 0,-2.96038 -2.17167,-5.42792 -5,-5.9082 v -39.86914 c 0.61112,-0.5509 1,-1.34379 1,-2.22266 v -1 h 1 c 1.64501,0 3,-1.35499 3,-3 v -2 a 1.0001,1.0001 0 0 0 -1,-1 z m 1,2 h 44 v 1 c 0,0.56413 -0.43587,1 -1,1 h -42 c -0.56413,0 -1,-0.43587 -1,-1 z m 4,4 h 36 v 1 c 0,0.56413 -0.43587,1 -1,1 h -34 c -0.56413,0 -1,-0.43587 -1,-1 z m 1,4 h 6 v 3 h -6 z m 8,0 h 8 v 3 h -6 -2 z m 10,0 h 8 v 3 h -8 z m 10,0 h 6 v 3 h -6 z m -28,5 h 9 v 3 h -9 z m 11,0 h 12 v 2.58398 c -1.81857,-0.88631 -3.85234,-1.38476 -6,-1.38476 -2.14766,0 -4.18143,0.49845 -6,1.38476 z m 14,0 h 9 v 3 h -9 z m -8,3.19922 c 4.48841,0 8.39886,2.52297 10.45703,6.27344 a 1,1 0 0 0 0.0273,0.0469 C 235.4483,222.29447 236,224.34115 236,226.52539 V 245 h -1.56641 c 0.0336,-0.16185 0.0508,-0.32904 0.0508,-0.5 v -0.0742 c 0,-1.3677 -1.1323,-2.5 -2.5,-2.5 h -5.50196 c 3.45038,-1.41516 5.31648,-5.57517 3.49024,-9.16797 l -5.08204,-9.99609 A 1.0001,1.0001 0 0 0 224,222.21484 a 1.0001,1.0001 0 0 0 -0.89062,0.54688 l -5.07422,9.98242 c -1.87877,3.56635 -0.0456,7.75863 3.4082,9.18164 h -5.45898 c -1.3677,0 -2.5,1.1323 -2.5,2.5 V 244.5 c 0,0.17096 0.0171,0.33815 0.0508,0.5 H 212 v -18.47461 c 0,-6.83192 5.37427,-12.32617 12,-12.32617 z M 207,216 h 7.51367 c -0.93312,0.8816 -1.74799,1.89045 -2.41992,3 H 207 Z m 26.48633,0 H 241 v 3 h -5.09375 c -0.67193,-1.10955 -1.4868,-2.1184 -2.41992,-3 z M 207,221 h 4.08398 c -0.39033,0.95204 -0.67924,1.95792 -0.86132,3 H 207 Z m 29.91602,0 H 241 v 3 h -3.22266 c -0.18208,-1.04208 -0.47099,-2.04796 -0.86132,-3 z M 224,225.41992 l 4.18945,8.24414 c 0.80862,1.5908 0.62645,3.30209 -0.21679,4.60547 0.0166,-0.63222 -0.11004,-1.28114 -0.41211,-1.90039 l -2.66797,-5.46875 A 1.0001,1.0001 0 0 0 223.82227,230.35352 1.0001,1.0001 0 0 0 223,231.23047 c -0.2704,2.48816 -1.46509,3.15069 -2.54688,5.08984 a 1.0001,1.0001 0 0 0 -0.0195,0.0371 c -0.31992,0.63282 -0.45435,1.29952 -0.43554,1.94922 -0.85473,-1.31032 -1.03176,-3.03938 -0.19336,-4.63086 a 1.0001,1.0001 0 0 0 0.006,-0.0117 z M 207,226 h 3.01172 c -0.006,0.17481 -0.0117,0.34908 -0.0117,0.52539 V 229 h -3 z m 30.98828,0 H 241 v 3 h -3 v -2.47461 c 0,-0.17631 -0.006,-0.35058 -0.0117,-0.52539 z M 207,231 h 3 v 3 h -3 z m 31,0 h 3 v 3 h -3 z m -13.7793,3.08203 1.54297,3.16406 c 0.70351,1.44221 -0.27516,3.05056 -1.80469,3.05664 -1.50731,-0.027 -2.4478,-1.62174 -1.74218,-3.0332 0.53804,-0.95295 1.37164,-1.86549 2.0039,-3.1875 z M 207,236 h 3 v 3 h -3 z m 31,0 h 3 v 3 h -3 z m -31,5 h 3 v 4 h -3 z m 31,0 h 3 v 4 h -3 z m -22.01562,2.92578 h 16 c 0.29429,0 0.5,0.2057 0.5,0.5 V 244.5 c 0,0.2943 -0.20571,0.5 -0.5,0.5 h -16 c -0.29429,0 -0.5,-0.2057 -0.5,-0.5 v -0.0742 c 0,-0.2943 0.20571,-0.5 0.5,-0.5 z M 206,247 h 5 31 c 1.86568,0 3.35138,1.28185 3.80078,3 h -43.60156 c 0.4494,-1.71815 1.9351,-3 3.80078,-3 z" id="rect993" style="color:#000000;fill:#000000;fill-rule:evenodd;stroke-linecap:round;stroke-linejoin:round;stroke-miterlimit:4.1"/>
</g>
</svg>