<?xml version="1.0" encoding="UTF-8" standalone="no"?>
<svg width="200" height="200" viewBox="0 0 200 200" xmlns="http://www.w3.org/2000/svg">
    <!-- QR Code Framework -->
    <rect x="0" y="0" width="200" height="200" fill="white" />
    
    <!-- QR Code Pattern (Simplified) -->
    <!-- Position Detection Patterns (3 corners) -->
    <!-- Top Left -->
    <rect x="20" y="20" width="40" height="40" fill="black" />
    <rect x="25" y="25" width="30" height="30" fill="white" />
    <rect x="30" y="30" width="20" height="20" fill="black" />
    
    <!-- Top Right -->
    <rect x="140" y="20" width="40" height="40" fill="black" />
    <rect x="145" y="25" width="30" height="30" fill="white" />
    <rect x="150" y="30" width="20" height="20" fill="black" />
    
    <!-- Bottom Left -->
    <rect x="20" y="140" width="40" height="40" fill="black" />
    <rect x="25" y="145" width="30" height="30" fill="white" />
    <rect x="30" y="150" width="20" height="20" fill="black" />
    
    <!-- Timing Patterns -->
    <rect x="70" y="20" width="10" height="10" fill="black" />
    <rect x="90" y="20" width="10" height="10" fill="black" />
    <rect x="110" y="20" width="10" height="10" fill="black" />
    
    <rect x="20" y="70" width="10" height="10" fill="black" />
    <rect x="20" y="90" width="10" height="10" fill="black" />
    <rect x="20" y="110" width="10" height="10" fill="black" />
    
    <!-- Logo in the center -->
    <rect x="80" y="80" width="40" height="40" fill="#0d6efd" rx="5" ry="5" />
    <text x="100" y="105" font-size="16" text-anchor="middle" fill="white" font-family="Arial, sans-serif" font-weight="bold">vPay</text>
    
    <!-- Random QR bits -->
    <rect x="60" y="40" width="10" height="10" fill="black" />
    <rect x="80" y="40" width="10" height="10" fill="black" />
    <rect x="100" y="50" width="10" height="10" fill="black" />
    <rect x="120" y="60" width="10" height="10" fill="black" />
    <rect x="130" y="70" width="10" height="10" fill="black" />
    <rect x="140" y="90" width="10" height="10" fill="black" />
    <rect x="120" y="110" width="10" height="10" fill="black" />
    <rect x="100" y="130" width="10" height="10" fill="black" />
    <rect x="80" y="140" width="10" height="10" fill="black" />
    <rect x="70" y="150" width="10" height="10" fill="black" />
    <rect x="90" y="160" width="10" height="10" fill="black" />
    <rect x="110" y="150" width="10" height="10" fill="black" />
    <rect x="130" y="140" width="10" height="10" fill="black" />
    <rect x="150" y="120" width="10" height="10" fill="black" />
    
    <rect x="40" y="60" width="10" height="10" fill="black" />
    <rect x="50" y="80" width="10" height="10" fill="black" />
    <rect x="60" y="100" width="10" height="10" fill="black" />
    <rect x="40" y="120" width="10" height="10" fill="black" />
    
    <rect x="170" y="40" width="10" height="10" fill="black" />
    <rect x="150" y="50" width="10" height="10" fill="black" />
    <rect x="160" y="70" width="10" height="10" fill="black" />
    <rect x="170" y="90" width="10" height="10" fill="black" />
</svg> 